<svg width="90" height="90" viewBox="0 0 90 90" fill="none" xmlns="http://www.w3.org/2000/svg">
<path d="M23 23.75H60.5M23 38.75H60.5M75.5 65L63.0339 58.7667C62.0889 58.2942 61.6164 58.058 61.121 57.8915C60.6815 57.7438 60.2289 57.6369 59.7695 57.5724C59.252 57.5 58.7236 57.5 57.6673 57.5H20C15.7996 57.5 13.6994 57.5 12.0951 56.6825C10.6838 55.9636 9.53649 54.8161 8.81746 53.405C8 51.8008 8 49.7004 8 45.5V17C8 12.7996 8 10.6994 8.81746 9.09508C9.53649 7.68384 10.6838 6.53649 12.0951 5.81746C13.6994 5 15.7996 5 20 5H63.5C67.7004 5 69.8008 5 71.405 5.81746C72.8161 6.53649 73.9636 7.68384 74.6825 9.09508C75.5 10.6994 75.5 12.7996 75.5 17V65Z" stroke="black" stroke-width="8" stroke-linecap="round" stroke-linejoin="round"/>
</svg>
