<svg width="20" height="20" viewBox="0 0 20 20" fill="none" xmlns="http://www.w3.org/2000/svg">
<path fill-rule="evenodd" clip-rule="evenodd" d="M18.707 1.29304C19.0976 1.68357 19.0976 2.31673 18.707 2.70726L2.70712 18.7072C2.3166 19.0977 1.68343 19.0977 1.29291 18.7072C0.902384 18.3167 0.902383 17.6835 1.29291 17.293L17.2928 1.29304C17.6834 0.90252 18.3165 0.90252 18.707 1.29304Z" fill="#FCF9F6"/>
<path fill-rule="evenodd" clip-rule="evenodd" d="M1.29295 1.29304C1.68348 0.90252 2.31664 0.90252 2.70717 1.29304L18.7071 17.293C19.0976 17.6835 19.0976 18.3167 18.7071 18.7072C18.3166 19.0977 17.6834 19.0977 17.2929 18.7072L1.29295 2.70726C0.90243 2.31673 0.90243 1.68357 1.29295 1.29304Z" fill="#FCF9F6"/>
</svg>
