<svg width="90" height="90" viewBox="0 0 90 90" fill="none" xmlns="http://www.w3.org/2000/svg">
<path d="M24.375 30C27.4816 30 30 27.4816 30 24.375C30 21.2684 27.4816 18.75 24.375 18.75C21.2684 18.75 18.75 21.2684 18.75 24.375C18.75 27.4816 21.2684 30 24.375 30Z" fill="#0F0F0F"/>
<path d="M18.75 37.5C18.75 35.4289 20.4289 33.75 22.5 33.75H26.25C28.321 33.75 30 35.4289 30 37.5V67.5C30 69.5711 28.321 71.25 26.25 71.25H22.5C20.4289 71.25 18.75 69.5711 18.75 67.5V37.5Z" fill="#0F0F0F"/>
<path d="M41.25 71.25H45C47.0711 71.25 48.75 69.5711 48.75 67.5V50.625C48.75 45 60 41.25 60 48.75V67.5015C60 69.5726 61.6789 71.25 63.75 71.25H67.5C69.5711 71.25 71.25 69.5711 71.25 67.5V45C71.25 37.5 65.625 33.75 58.125 33.75C50.625 33.75 48.75 39.375 48.75 39.375V37.5C48.75 35.4289 47.0711 33.75 45 33.75H41.25C39.1789 33.75 37.5 35.4289 37.5 37.5V67.5C37.5 69.5711 39.1789 71.25 41.25 71.25Z" fill="#0F0F0F"/>
<path fill-rule="evenodd" clip-rule="evenodd" d="M75 3.75C81.2134 3.75 86.25 8.78681 86.25 15V75C86.25 81.2134 81.2134 86.25 75 86.25H15C8.78681 86.25 3.75 81.2134 3.75 75V15C3.75 8.78681 8.78681 3.75 15 3.75H75ZM75 11.25C77.0711 11.25 78.75 12.9289 78.75 15V75C78.75 77.0711 77.0711 78.75 75 78.75H15C12.9289 78.75 11.25 77.0711 11.25 75V15C11.25 12.9289 12.9289 11.25 15 11.25H75Z" fill="#0F0F0F"/>
</svg>
