<svg width="66" height="72" viewBox="0 0 66 72" fill="currentColor" xmlns="http://www.w3.org/2000/svg">
<path d="M58.7318 11.93L48.2519 0.49714C47.9601 0.178762 47.5645 0 47.1517 0H8.3677C7.50854 0 6.81201 0.759853 6.81201 1.69711V70.3029C6.81201 71.2402 7.50854 72 8.3677 72H57.6319C58.4912 72 59.1875 71.2402 59.1875 70.3029V13.13C59.1875 12.6799 59.0237 12.2484 58.7318 11.93ZM48.7074 5.79439L53.876 11.4331H48.7074V5.79439ZM9.92338 3.39422H45.5963V5.71655H9.92338V3.39422ZM56.0762 68.6058H9.92338V9.11077H45.5963V13.1302C45.5963 14.0675 46.2926 14.8273 47.1519 14.8273H56.0762V68.6058Z" fill="#2F2E2E"/>
<path d="M41.8382 33.2742C41.0884 33.2688 40.3495 33.3091 39.6202 33.3543C39.3514 33.374 39.0853 33.3993 38.8193 33.4245C38.5468 33.1167 38.2834 32.7988 38.0284 32.4736C36.4064 30.3789 35.0967 28.0034 34.0295 25.5349C34.3128 24.3422 34.5396 23.0974 34.6765 21.8047C34.9264 19.4453 35.0123 16.7564 34.2019 14.5069C33.9221 13.7305 33.1759 12.7853 32.3151 13.256C31.3255 13.7973 31.0471 15.3308 30.9665 16.4178C30.9015 17.2965 30.947 18.1774 31.0822 19.0413C31.2199 19.9112 31.4417 20.7371 31.6831 21.5619C31.9084 22.3181 32.1567 23.0685 32.4273 23.8118C32.2556 24.397 32.0733 24.9719 31.8818 25.5322C31.4354 26.8091 30.9528 28.0222 30.4886 29.1892C30.2438 29.7678 30.0042 30.3341 29.7698 30.8878C29.0281 32.6653 28.2229 34.4101 27.3193 36.0968C25.2113 36.9081 23.3195 37.8485 21.7485 38.9536C20.9057 39.5476 20.1613 40.1928 19.5413 40.9003C18.956 41.5683 18.3611 42.4352 18.309 43.3949C18.2797 43.9366 18.4764 44.4622 18.8831 44.7836C19.4426 45.2395 20.1839 45.2092 20.8329 45.0608C22.959 44.5742 24.5917 42.5805 25.982 40.9001C26.9397 39.7427 28.0297 38.273 29.17 36.4956C29.1724 36.4915 29.1749 36.4874 29.1776 36.4833C31.1332 35.8219 33.2616 35.2634 35.5205 34.853C36.5524 34.6663 37.6117 34.5136 38.6922 34.4063C39.452 35.1827 40.273 35.8896 41.1686 36.4799C41.8662 36.9481 42.6082 37.3434 43.3848 37.6383C44.1701 37.9182 44.9601 38.1467 45.776 38.2913C46.1879 38.3556 46.6092 38.3848 47.0396 38.3671C48.0002 38.3275 49.3789 37.9256 49.4694 36.6542C49.4971 36.2647 49.4202 35.9235 49.2661 35.6244C48.5104 34.1551 45.8994 33.6935 44.7015 33.4858C43.7571 33.3222 42.7932 33.2733 41.8382 33.2742ZM26.2689 37.9576C25.819 38.7179 25.3851 39.4017 24.9762 40.0034C23.975 41.4896 22.8315 43.2548 21.1758 43.9149C20.8614 44.0402 20.4473 44.1697 20.0109 44.1416C19.6222 44.1167 19.2389 43.9298 19.2565 43.448C19.2652 43.196 19.3783 42.8744 19.5517 42.5585C19.7415 42.2121 19.9765 41.8944 20.231 41.6023C20.7763 40.9773 21.4658 40.3715 22.259 39.8106C23.4755 38.9496 24.9279 38.1746 26.5469 37.483C26.4537 37.6437 26.3608 37.8035 26.2689 37.9576ZM31.9154 18.8911C31.7906 18.0959 31.7717 17.2897 31.8484 16.5145C31.8866 16.1268 31.959 15.7485 32.0637 15.3939C32.1525 15.093 32.3442 14.3585 32.6499 14.2641C33.154 14.1084 33.3089 15.2889 33.3659 15.6229C33.6908 17.5228 33.4045 19.6356 33.0148 21.4992C32.9528 21.7956 32.8837 22.0873 32.8129 22.3779C32.6922 22.0156 32.5771 21.6522 32.4711 21.287C32.2429 20.4893 32.0343 19.6824 31.9154 18.8911ZM35.3759 33.889C33.4821 34.2239 31.6806 34.6627 29.9872 35.1806C30.1911 35.1184 31.1229 33.1921 31.3307 32.7922C32.3099 30.9107 33.111 28.9359 33.6866 26.8643C34.703 29.0572 35.9366 31.1551 37.452 33.0224C37.5916 33.1918 37.7335 33.3593 37.8778 33.5247C37.0286 33.6245 36.1929 33.746 35.3759 33.889ZM48.1831 36.5352C48.1138 36.9436 47.3142 37.1771 46.9411 37.2414C45.8384 37.4305 44.6718 37.2792 43.6164 36.8924C42.8923 36.6272 42.1939 36.2661 41.5304 35.8316C40.8708 35.397 40.2537 34.8856 39.6768 34.3217C40.3881 34.2751 41.1081 34.2445 41.8316 34.2594C42.5551 34.2674 43.2842 34.3072 44.0043 34.4097C45.3549 34.574 46.8682 35.0797 47.9313 36.0357C48.1406 36.2242 48.2074 36.3908 48.1831 36.5352Z" fill="#2F2E2E"/>
<path d="M32.8961 52.8123H29.4517V63.669H32.6715C34.3278 63.669 35.6134 63.1789 36.5277 62.1986C37.4421 61.2184 37.8994 59.8225 37.8994 58.0104C37.8994 56.3273 37.4647 55.04 36.5958 54.1489C35.7267 53.2578 34.4935 52.8123 32.8961 52.8123ZM34.5367 60.487C34.1554 61.0045 33.5564 61.2632 32.7395 61.2632H32.1405V55.1814H32.9231C33.6584 55.1814 34.2065 55.4215 34.5672 55.9017C34.9279 56.3821 35.1083 57.1195 35.1083 58.1147C35.1085 59.1789 34.9179 59.9698 34.5367 60.487Z" fill="#2F2E2E"/>
<path d="M26.9193 53.7108C26.2885 53.1119 25.3446 52.8123 24.0876 52.8123H20.6431V63.669H23.3319V60.0673H24.0876C25.2946 60.0673 26.2259 59.7369 26.882 59.0759C27.5377 58.4152 27.8656 57.4782 27.8656 56.2653C27.8654 55.1613 27.5501 54.3098 26.9193 53.7108ZM24.7853 57.3051C24.547 57.5526 24.2259 57.6764 23.8221 57.6764H23.3319V55.1814H24.0264C24.7706 55.1814 25.1427 55.5478 25.1427 56.2805C25.1425 56.7158 25.0235 57.0575 24.7853 57.3051Z" fill="#2F2E2E"/>
<path d="M39.6831 63.669H42.3311V59.5921H45.3126V57.2381H42.3311V55.1663H45.5646V52.8123H39.6831V63.669Z" fill="#2F2E2E"/>
</svg>
